<mxfile host="app.diagrams.net" modified="2023-05-23T13:25:56.531Z" agent="Mozilla/5.0 (Windows NT 10.0; Win64; x64) AppleWebKit/537.36 (KHTML, like Gecko) Chrome/110.0.0.0 YaBrowser/23.3.4.603 Yowser/2.5 Safari/537.36" etag="qBDVlMidkEy8iKzxwMxR" version="21.3.2" type="device">
  <diagram name="Страница 1" id="vi7Z5-RDzcJZjQspI_TG">
    <mxGraphModel dx="4014" dy="1704" grid="1" gridSize="10" guides="1" tooltips="1" connect="1" arrows="1" fold="1" page="1" pageScale="1" pageWidth="827" pageHeight="1169" math="0" shadow="0">
      <root>
        <mxCell id="0" />
        <mxCell id="1" parent="0" />
        <mxCell id="GAv3YF9YGl0GnqANNmxV-2" value="EEPROMVar" style="swimlane;fontStyle=1;align=center;verticalAlign=top;childLayout=stackLayout;horizontal=1;startSize=26;horizontalStack=0;resizeParent=1;resizeParentMax=0;resizeLast=0;collapsible=1;marginBottom=0;" vertex="1" parent="1">
          <mxGeometry x="-112.5" y="350" width="390" height="190" as="geometry" />
        </mxCell>
        <mxCell id="GAv3YF9YGl0GnqANNmxV-3" value="- dataAddr: uint16_t&#xa;- data: T" style="text;strokeColor=none;fillColor=none;align=left;verticalAlign=top;spacingLeft=4;spacingRight=4;overflow=hidden;rotatable=0;points=[[0,0.5],[1,0.5]];portConstraint=eastwest;fontStyle=0" vertex="1" parent="GAv3YF9YGl0GnqANNmxV-2">
          <mxGeometry y="26" width="390" height="34" as="geometry" />
        </mxCell>
        <mxCell id="GAv3YF9YGl0GnqANNmxV-4" value="" style="line;strokeWidth=1;fillColor=none;align=left;verticalAlign=middle;spacingTop=-1;spacingLeft=3;spacingRight=3;rotatable=0;labelPosition=right;points=[];portConstraint=eastwest;" vertex="1" parent="GAv3YF9YGl0GnqANNmxV-2">
          <mxGeometry y="60" width="390" height="8" as="geometry" />
        </mxCell>
        <mxCell id="GAv3YF9YGl0GnqANNmxV-5" value="+ EEPROMVar&lt;T&gt;(path:const char*, default_value: T)&#xa;+ Update(T new_value): void&#xa;+ Update(): void&#xa;+ UpdateNow(T new_value): void&#xa;+ UpdateNow(): void&#xa;+ Data(): T&amp;&#xa;+ operator=(new_value: const T): EEPROMVar&lt;T&gt;&amp;&#xa;+ operator T&amp;(): T&amp;" style="text;strokeColor=none;fillColor=none;align=left;verticalAlign=top;spacingLeft=4;spacingRight=4;overflow=hidden;rotatable=0;points=[[0,0.5],[1,0.5]];portConstraint=eastwest;" vertex="1" parent="GAv3YF9YGl0GnqANNmxV-2">
          <mxGeometry y="68" width="390" height="122" as="geometry" />
        </mxCell>
        <mxCell id="GAv3YF9YGl0GnqANNmxV-6" style="edgeStyle=orthogonalEdgeStyle;rounded=0;orthogonalLoop=1;jettySize=auto;html=1;entryX=1;entryY=0.482;entryDx=0;entryDy=0;endArrow=none;endFill=0;endSize=12;startArrow=diamondThin;startFill=1;startSize=12;entryPerimeter=0;" edge="1" parent="1" source="GAv3YF9YGl0GnqANNmxV-7" target="GAv3YF9YGl0GnqANNmxV-27">
          <mxGeometry relative="1" as="geometry" />
        </mxCell>
        <mxCell id="GAv3YF9YGl0GnqANNmxV-7" value="EEPROManager" style="swimlane;fontStyle=1;align=center;verticalAlign=top;childLayout=stackLayout;horizontal=1;startSize=26;horizontalStack=0;resizeParent=1;resizeParentMax=0;resizeLast=0;collapsible=1;marginBottom=0;" vertex="1" parent="1">
          <mxGeometry x="-170" y="20" width="505" height="280" as="geometry" />
        </mxCell>
        <mxCell id="GAv3YF9YGl0GnqANNmxV-8" value="- startAddr: const uint16_t&#xa;- lastVarInfoAddr: uint16_t&#xa;- lastVarInfo: VariableInfo&#xa;- isInited: bool&#xa;- eepromUpdater: EEPROMReaderWriter*" style="text;strokeColor=none;fillColor=none;align=left;verticalAlign=top;spacingLeft=4;spacingRight=4;overflow=hidden;rotatable=0;points=[[0,0.5],[1,0.5]];portConstraint=eastwest;fontStyle=4" vertex="1" parent="GAv3YF9YGl0GnqANNmxV-7">
          <mxGeometry y="26" width="505" height="84" as="geometry" />
        </mxCell>
        <mxCell id="GAv3YF9YGl0GnqANNmxV-9" value="" style="line;strokeWidth=1;fillColor=none;align=left;verticalAlign=middle;spacingTop=-1;spacingLeft=3;spacingRight=3;rotatable=0;labelPosition=right;points=[];portConstraint=eastwest;" vertex="1" parent="GAv3YF9YGl0GnqANNmxV-7">
          <mxGeometry y="110" width="505" height="8" as="geometry" />
        </mxCell>
        <mxCell id="GAv3YF9YGl0GnqANNmxV-10" value="+ GetOrAddVar&lt;T&gt;(path: const char*, data: T*): uint16_t&#xa;+ Update&lt;T&gt;(addr: const uint16_t, data: const T): void&#xa;+ UpdateNow&lt;T&gt;(addr: const uint16_t, data: const T): void&#xa;- init(): void&#xa;- getVar&lt;T&gt;(path: const char*, data: T*) const: uint16_t&#xa;- addVar&lt;T&gt;(path: const char*, data: const T*): uint16_t&#xa;- readValue&lt;T&gt;(addr: const uint16_t): T&#xa;- getDataAddr(var_info_addr: const uint16_t): uint16_t&#xa;- setVariablesExistence(vars_exist: const bool): void&#xa;- GetNewVarInfoAddr(): void" style="text;strokeColor=none;fillColor=none;align=left;verticalAlign=top;spacingLeft=4;spacingRight=4;overflow=hidden;rotatable=0;points=[[0,0.5],[1,0.5]];portConstraint=eastwest;fontStyle=4" vertex="1" parent="GAv3YF9YGl0GnqANNmxV-7">
          <mxGeometry y="118" width="505" height="162" as="geometry" />
        </mxCell>
        <mxCell id="GAv3YF9YGl0GnqANNmxV-11" value="&lt;p style=&quot;margin: 0px ; margin-top: 4px ; text-align: center&quot;&gt;&lt;i&gt;&amp;lt;&amp;lt;struct&amp;gt;&amp;gt;&lt;/i&gt;&lt;br&gt;&lt;b&gt;VariableInfo&lt;/b&gt;&lt;br&gt;&lt;/p&gt;&lt;hr size=&quot;1&quot;&gt;&lt;p style=&quot;margin: 0px ; margin-left: 4px&quot;&gt;+ PathHash: uint32_t&lt;br&gt;+ DataSize: uint16_t&lt;/p&gt;&lt;p style=&quot;margin: 0px ; margin-left: 4px&quot;&gt;+ NextVarAddr: uint16_t&lt;/p&gt;" style="verticalAlign=top;align=left;overflow=fill;fontSize=12;fontFamily=Helvetica;html=1;" vertex="1" parent="1">
          <mxGeometry x="429" y="37" width="190" height="100" as="geometry" />
        </mxCell>
        <mxCell id="GAv3YF9YGl0GnqANNmxV-12" value="T" style="rounded=0;whiteSpace=wrap;html=1;dashed=1;" vertex="1" parent="1">
          <mxGeometry x="261" y="340" width="31" height="20" as="geometry" />
        </mxCell>
        <mxCell id="GAv3YF9YGl0GnqANNmxV-20" style="edgeStyle=orthogonalEdgeStyle;rounded=0;orthogonalLoop=1;jettySize=auto;html=1;endArrow=classicThin;endFill=1;endSize=10;strokeWidth=1;exitX=0.5;exitY=1;exitDx=0;exitDy=0;exitPerimeter=0;" edge="1" parent="1" source="GAv3YF9YGl0GnqANNmxV-22">
          <mxGeometry relative="1" as="geometry">
            <mxPoint x="383" y="243" as="targetPoint" />
            <Array as="points">
              <mxPoint x="384" y="243" />
            </Array>
          </mxGeometry>
        </mxCell>
        <mxCell id="GAv3YF9YGl0GnqANNmxV-21" style="edgeStyle=orthogonalEdgeStyle;rounded=0;orthogonalLoop=1;jettySize=auto;html=1;" edge="1" parent="1" source="GAv3YF9YGl0GnqANNmxV-22">
          <mxGeometry relative="1" as="geometry">
            <mxPoint x="384" y="87" as="targetPoint" />
          </mxGeometry>
        </mxCell>
        <mxCell id="GAv3YF9YGl0GnqANNmxV-22" value="Приватная&lt;br&gt;вложенная&lt;br&gt;структура" style="shape=note;whiteSpace=wrap;html=1;size=14;verticalAlign=top;align=left;spacingTop=-6;dashed=1;" vertex="1" parent="1">
          <mxGeometry x="339" y="141.5" width="90" height="50" as="geometry" />
        </mxCell>
        <mxCell id="GAv3YF9YGl0GnqANNmxV-23" value="&lt;p style=&quot;margin: 0px ; margin-top: 4px ; text-align: center&quot;&gt;&lt;i&gt;&amp;lt;&amp;lt;struct&amp;gt;&amp;gt;&lt;/i&gt;&lt;br&gt;&lt;b&gt;MetaData&lt;/b&gt;&lt;br&gt;&lt;/p&gt;&lt;hr size=&quot;1&quot;&gt;&lt;p style=&quot;margin: 0px ; margin-left: 4px&quot;&gt;+ ControlValue: uint16_t&lt;br&gt;+ ComileTimestamp: int32_t&lt;/p&gt;" style="verticalAlign=top;align=left;overflow=fill;fontSize=12;fontFamily=Helvetica;html=1;" vertex="1" parent="1">
          <mxGeometry x="439" y="223" width="190" height="80" as="geometry" />
        </mxCell>
        <mxCell id="GAv3YF9YGl0GnqANNmxV-24" value="" style="endArrow=open;startArrow=circlePlus;endFill=0;startFill=0;endSize=8;html=1;strokeWidth=1;exitX=0.997;exitY=0.653;exitDx=0;exitDy=0;entryX=0;entryY=0.25;entryDx=0;entryDy=0;exitPerimeter=0;" edge="1" parent="1" source="GAv3YF9YGl0GnqANNmxV-10" target="GAv3YF9YGl0GnqANNmxV-23">
          <mxGeometry width="160" relative="1" as="geometry">
            <mxPoint x="347" y="88" as="sourcePoint" />
            <mxPoint x="462" y="88" as="targetPoint" />
          </mxGeometry>
        </mxCell>
        <mxCell id="GAv3YF9YGl0GnqANNmxV-25" value="EEPROMReaderWriter" style="swimlane;fontStyle=1;align=center;verticalAlign=top;childLayout=stackLayout;horizontal=1;startSize=26;horizontalStack=0;resizeParent=1;resizeParentMax=0;resizeLast=0;collapsible=1;marginBottom=0;whiteSpace=wrap;html=1;" vertex="1" parent="1">
          <mxGeometry x="-800" y="130" width="557.5" height="170" as="geometry" />
        </mxCell>
        <mxCell id="GAv3YF9YGl0GnqANNmxV-26" value="" style="line;strokeWidth=1;fillColor=none;align=left;verticalAlign=middle;spacingTop=-1;spacingLeft=3;spacingRight=3;rotatable=0;labelPosition=right;points=[];portConstraint=eastwest;strokeColor=inherit;" vertex="1" parent="GAv3YF9YGl0GnqANNmxV-25">
          <mxGeometry y="26" width="557.5" height="8" as="geometry" />
        </mxCell>
        <mxCell id="GAv3YF9YGl0GnqANNmxV-27" value="+ ScheduleUpdate&amp;lt;T&amp;gt;(addr: const uint16_t, data: const T): void&lt;br&gt;+ UpdateNow&amp;lt;T&amp;gt;(addr: const uint16_t, data: const T): void&lt;br style=&quot;border-color: var(--border-color); padding: 0px; margin: 0px;&quot;&gt;+ ReadValue&amp;lt;T&amp;gt;(addr: const uint16_t) const: T&lt;br&gt;&lt;i&gt;- virtual scheduleUpdate(upd:UpdateInfo): void&lt;br style=&quot;border-color: var(--border-color);&quot;&gt;- virtual updateNow(upd:UpdateInfo): void&lt;br&gt;- virtual readBytes(addr: const uint16_t, data uint8_t*, data_len: uint16_t) const: void&lt;/i&gt;" style="text;strokeColor=none;fillColor=none;align=left;verticalAlign=top;spacingLeft=4;spacingRight=4;overflow=hidden;rotatable=0;points=[[0,0.5],[1,0.5]];portConstraint=eastwest;whiteSpace=wrap;html=1;" vertex="1" parent="GAv3YF9YGl0GnqANNmxV-25">
          <mxGeometry y="34" width="557.5" height="136" as="geometry" />
        </mxCell>
        <mxCell id="GAv3YF9YGl0GnqANNmxV-28" style="edgeStyle=orthogonalEdgeStyle;rounded=0;orthogonalLoop=1;jettySize=auto;html=1;endArrow=block;endFill=0;endSize=10;exitX=0.5;exitY=0;exitDx=0;exitDy=0;" edge="1" parent="1" source="GAv3YF9YGl0GnqANNmxV-29">
          <mxGeometry relative="1" as="geometry">
            <Array as="points">
              <mxPoint x="-667" y="340" />
              <mxPoint x="-521" y="340" />
            </Array>
            <mxPoint x="-521" y="300" as="targetPoint" />
          </mxGeometry>
        </mxCell>
        <mxCell id="GAv3YF9YGl0GnqANNmxV-29" value="EEPROMReaderWriterESP" style="swimlane;fontStyle=1;align=center;verticalAlign=top;childLayout=stackLayout;horizontal=1;startSize=26;horizontalStack=0;resizeParent=1;resizeParentMax=0;resizeLast=0;collapsible=1;marginBottom=0;whiteSpace=wrap;html=1;" vertex="1" parent="1">
          <mxGeometry x="-800" y="380" width="266.25" height="160" as="geometry" />
        </mxCell>
        <mxCell id="GAv3YF9YGl0GnqANNmxV-30" value="- updateThreshold: const uint8_t&lt;br&gt;- updateCounter: uint8_t" style="text;strokeColor=none;fillColor=none;align=left;verticalAlign=top;spacingLeft=4;spacingRight=4;overflow=hidden;rotatable=0;points=[[0,0.5],[1,0.5]];portConstraint=eastwest;whiteSpace=wrap;html=1;" vertex="1" parent="GAv3YF9YGl0GnqANNmxV-29">
          <mxGeometry y="26" width="266.25" height="44" as="geometry" />
        </mxCell>
        <mxCell id="GAv3YF9YGl0GnqANNmxV-31" value="" style="line;strokeWidth=1;fillColor=none;align=left;verticalAlign=middle;spacingTop=-1;spacingLeft=3;spacingRight=3;rotatable=0;labelPosition=right;points=[];portConstraint=eastwest;strokeColor=inherit;" vertex="1" parent="GAv3YF9YGl0GnqANNmxV-29">
          <mxGeometry y="70" width="266.25" height="8" as="geometry" />
        </mxCell>
        <mxCell id="GAv3YF9YGl0GnqANNmxV-32" value="- virtual scheduleUpdate(upd:UpdateInfo): void&lt;br style=&quot;border-color: var(--border-color);&quot;&gt;- virtual updateNow(upd:UpdateInfo): void&lt;br&gt;- prepareUpdateBytes(upd:UpdateInfo): void&lt;br&gt;- commitUpdate(): void&lt;br style=&quot;border-color: var(--border-color); padding: 0px; margin: 0px;&quot;&gt;- updateBytes(upd:UpdateInfo): void" style="text;strokeColor=none;fillColor=none;align=left;verticalAlign=top;spacingLeft=4;spacingRight=4;overflow=hidden;rotatable=0;points=[[0,0.5],[1,0.5]];portConstraint=eastwest;whiteSpace=wrap;html=1;" vertex="1" parent="GAv3YF9YGl0GnqANNmxV-29">
          <mxGeometry y="78" width="266.25" height="82" as="geometry" />
        </mxCell>
        <mxCell id="GAv3YF9YGl0GnqANNmxV-33" value="Use" style="endArrow=open;endSize=12;dashed=1;html=1;rounded=0;exitX=0.5;exitY=0;exitDx=0;exitDy=0;" edge="1" parent="1" source="GAv3YF9YGl0GnqANNmxV-2" target="GAv3YF9YGl0GnqANNmxV-10">
          <mxGeometry x="-0.3104" y="2" width="160" relative="1" as="geometry">
            <mxPoint x="81" y="694.5" as="sourcePoint" />
            <mxPoint x="77" y="636.5" as="targetPoint" />
            <mxPoint as="offset" />
          </mxGeometry>
        </mxCell>
        <mxCell id="GAv3YF9YGl0GnqANNmxV-34" value="1" style="text;html=1;resizable=0;points=[];autosize=1;align=left;verticalAlign=top;spacingTop=-4;" vertex="1" parent="1">
          <mxGeometry x="-242.5" y="208" width="20" height="20" as="geometry" />
        </mxCell>
        <mxCell id="GAv3YF9YGl0GnqANNmxV-36" value="&lt;p style=&quot;margin: 0px ; margin-top: 4px ; text-align: center&quot;&gt;&lt;i&gt;&amp;lt;&amp;lt;struct&amp;gt;&amp;gt;&lt;/i&gt;&lt;br&gt;&lt;b&gt;UpdateInfo&lt;/b&gt;&lt;br&gt;&lt;/p&gt;&lt;hr size=&quot;1&quot;&gt;&lt;p style=&quot;margin: 0px ; margin-left: 4px&quot;&gt;+ Addr: uint16_t&lt;br&gt;+ Data: uint8_t*&lt;/p&gt;&lt;p style=&quot;margin: 0px ; margin-left: 4px&quot;&gt;+ Size: uint16_t&lt;/p&gt;" style="verticalAlign=top;align=left;overflow=fill;fontSize=12;fontFamily=Helvetica;html=1;" vertex="1" parent="1">
          <mxGeometry x="-616.25" width="190" height="100" as="geometry" />
        </mxCell>
        <mxCell id="GAv3YF9YGl0GnqANNmxV-37" style="edgeStyle=orthogonalEdgeStyle;rounded=0;orthogonalLoop=1;jettySize=auto;html=1;endArrow=block;endFill=0;startSize=10;endSize=10;entryX=0.501;entryY=0.999;entryDx=0;entryDy=0;entryPerimeter=0;exitX=0.5;exitY=0;exitDx=0;exitDy=0;" edge="1" parent="1" source="GAv3YF9YGl0GnqANNmxV-38" target="GAv3YF9YGl0GnqANNmxV-27">
          <mxGeometry relative="1" as="geometry">
            <Array as="points">
              <mxPoint x="-377" y="340" />
              <mxPoint x="-521" y="340" />
            </Array>
            <mxPoint x="-550.7142857142853" y="530" as="targetPoint" />
          </mxGeometry>
        </mxCell>
        <mxCell id="GAv3YF9YGl0GnqANNmxV-38" value="EEPROMReaderWriterAVR" style="swimlane;fontStyle=1;align=center;verticalAlign=top;childLayout=stackLayout;horizontal=1;startSize=26;horizontalStack=0;resizeParent=1;resizeParentMax=0;resizeLast=0;collapsible=1;marginBottom=0;whiteSpace=wrap;html=1;" vertex="1" parent="1">
          <mxGeometry x="-512.5" y="380" width="270" height="160" as="geometry" />
        </mxCell>
        <mxCell id="GAv3YF9YGl0GnqANNmxV-39" value="- updateThreshold: const uint8_t&lt;br&gt;- updateCounter: uint8_t" style="text;strokeColor=none;fillColor=none;align=left;verticalAlign=top;spacingLeft=4;spacingRight=4;overflow=hidden;rotatable=0;points=[[0,0.5],[1,0.5]];portConstraint=eastwest;whiteSpace=wrap;html=1;" vertex="1" parent="GAv3YF9YGl0GnqANNmxV-38">
          <mxGeometry y="26" width="270" height="44" as="geometry" />
        </mxCell>
        <mxCell id="GAv3YF9YGl0GnqANNmxV-40" value="" style="line;strokeWidth=1;fillColor=none;align=left;verticalAlign=middle;spacingTop=-1;spacingLeft=3;spacingRight=3;rotatable=0;labelPosition=right;points=[];portConstraint=eastwest;strokeColor=inherit;" vertex="1" parent="GAv3YF9YGl0GnqANNmxV-38">
          <mxGeometry y="70" width="270" height="8" as="geometry" />
        </mxCell>
        <mxCell id="GAv3YF9YGl0GnqANNmxV-41" value="- virtual scheduleUpdate(upd:UpdateInfo): void&lt;br style=&quot;border-color: var(--border-color);&quot;&gt;- virtual updateNow(upd:UpdateInfo): void&lt;br style=&quot;border-color: var(--border-color); padding: 0px; margin: 0px;&quot;&gt;- updateBytes(upd:UpdateInfo): void" style="text;strokeColor=none;fillColor=none;align=left;verticalAlign=top;spacingLeft=4;spacingRight=4;overflow=hidden;rotatable=0;points=[[0,0.5],[1,0.5]];portConstraint=eastwest;whiteSpace=wrap;html=1;" vertex="1" parent="GAv3YF9YGl0GnqANNmxV-38">
          <mxGeometry y="78" width="270" height="82" as="geometry" />
        </mxCell>
        <mxCell id="GAv3YF9YGl0GnqANNmxV-42" value="" style="endArrow=open;startArrow=circlePlus;endFill=0;startFill=0;endSize=8;html=1;strokeWidth=1;exitX=1;exitY=0.5;exitDx=0;exitDy=0;entryX=0;entryY=0.5;entryDx=0;entryDy=0;" edge="1" parent="1" source="GAv3YF9YGl0GnqANNmxV-8" target="GAv3YF9YGl0GnqANNmxV-11">
          <mxGeometry width="160" relative="1" as="geometry">
            <mxPoint x="345" y="254" as="sourcePoint" />
            <mxPoint x="462" y="254" as="targetPoint" />
          </mxGeometry>
        </mxCell>
        <mxCell id="GAv3YF9YGl0GnqANNmxV-43" value="" style="endArrow=open;startArrow=circlePlus;endFill=0;startFill=0;endSize=8;html=1;strokeWidth=1;exitX=0.5;exitY=0;exitDx=0;exitDy=0;" edge="1" parent="1" source="GAv3YF9YGl0GnqANNmxV-25" target="GAv3YF9YGl0GnqANNmxV-36">
          <mxGeometry width="160" relative="1" as="geometry">
            <mxPoint x="480" y="800" as="sourcePoint" />
            <mxPoint x="578.75" y="1036" as="targetPoint" />
          </mxGeometry>
        </mxCell>
        <mxCell id="GAv3YF9YGl0GnqANNmxV-45" value="1" style="text;html=1;resizable=0;points=[];autosize=1;align=left;verticalAlign=top;spacingTop=-4;" vertex="1" parent="1">
          <mxGeometry x="-190" y="138" width="20" height="20" as="geometry" />
        </mxCell>
        <mxCell id="GAv3YF9YGl0GnqANNmxV-46" value="EEPROMReaderWriter" style="swimlane;fontStyle=1;align=center;verticalAlign=top;childLayout=stackLayout;horizontal=1;startSize=26;horizontalStack=0;resizeParent=1;resizeParentMax=0;resizeLast=0;collapsible=1;marginBottom=0;whiteSpace=wrap;html=1;" vertex="1" parent="1">
          <mxGeometry x="-810" y="680" width="557.5" height="170" as="geometry" />
        </mxCell>
        <mxCell id="GAv3YF9YGl0GnqANNmxV-47" value="" style="line;strokeWidth=1;fillColor=none;align=left;verticalAlign=middle;spacingTop=-1;spacingLeft=3;spacingRight=3;rotatable=0;labelPosition=right;points=[];portConstraint=eastwest;strokeColor=inherit;" vertex="1" parent="GAv3YF9YGl0GnqANNmxV-46">
          <mxGeometry y="26" width="557.5" height="8" as="geometry" />
        </mxCell>
        <mxCell id="GAv3YF9YGl0GnqANNmxV-48" value="+ ScheduleUpdate&amp;lt;T&amp;gt;(addr: const uint16_t, data: const T): void&lt;br&gt;+ UpdateNow&amp;lt;T&amp;gt;(addr: const uint16_t, data: const T): void&lt;br style=&quot;border-color: var(--border-color); padding: 0px; margin: 0px;&quot;&gt;+ ReadValue&amp;lt;T&amp;gt;(addr: const uint16_t) const: T&lt;br&gt;&lt;i&gt;- virtual scheduleUpdate(upd:UpdateInfo): void&lt;br style=&quot;border-color: var(--border-color);&quot;&gt;- virtual updateNow(upd:UpdateInfo): void&lt;br&gt;- virtual readBytes(addr: const uint16_t, data uint8_t*, data_len: uint16_t) const: void&lt;/i&gt;" style="text;strokeColor=none;fillColor=none;align=left;verticalAlign=top;spacingLeft=4;spacingRight=4;overflow=hidden;rotatable=0;points=[[0,0.5],[1,0.5]];portConstraint=eastwest;whiteSpace=wrap;html=1;" vertex="1" parent="GAv3YF9YGl0GnqANNmxV-46">
          <mxGeometry y="34" width="557.5" height="136" as="geometry" />
        </mxCell>
        <mxCell id="GAv3YF9YGl0GnqANNmxV-49" style="edgeStyle=orthogonalEdgeStyle;rounded=0;orthogonalLoop=1;jettySize=auto;html=1;endArrow=block;endFill=0;endSize=10;exitX=0.5;exitY=0;exitDx=0;exitDy=0;" edge="1" parent="1" source="GAv3YF9YGl0GnqANNmxV-50">
          <mxGeometry relative="1" as="geometry">
            <Array as="points">
              <mxPoint x="-677" y="890" />
              <mxPoint x="-531" y="890" />
            </Array>
            <mxPoint x="-531" y="850" as="targetPoint" />
          </mxGeometry>
        </mxCell>
        <mxCell id="GAv3YF9YGl0GnqANNmxV-50" value="EEPROMReaderWriterESP" style="swimlane;fontStyle=1;align=center;verticalAlign=top;childLayout=stackLayout;horizontal=1;startSize=26;horizontalStack=0;resizeParent=1;resizeParentMax=0;resizeLast=0;collapsible=1;marginBottom=0;whiteSpace=wrap;html=1;" vertex="1" parent="1">
          <mxGeometry x="-810" y="930" width="266.25" height="160" as="geometry" />
        </mxCell>
        <mxCell id="GAv3YF9YGl0GnqANNmxV-51" value="- updateThreshold: const uint8_t&lt;br&gt;- updateCounter: uint8_t" style="text;strokeColor=none;fillColor=none;align=left;verticalAlign=top;spacingLeft=4;spacingRight=4;overflow=hidden;rotatable=0;points=[[0,0.5],[1,0.5]];portConstraint=eastwest;whiteSpace=wrap;html=1;" vertex="1" parent="GAv3YF9YGl0GnqANNmxV-50">
          <mxGeometry y="26" width="266.25" height="44" as="geometry" />
        </mxCell>
        <mxCell id="GAv3YF9YGl0GnqANNmxV-52" value="" style="line;strokeWidth=1;fillColor=none;align=left;verticalAlign=middle;spacingTop=-1;spacingLeft=3;spacingRight=3;rotatable=0;labelPosition=right;points=[];portConstraint=eastwest;strokeColor=inherit;" vertex="1" parent="GAv3YF9YGl0GnqANNmxV-50">
          <mxGeometry y="70" width="266.25" height="8" as="geometry" />
        </mxCell>
        <mxCell id="GAv3YF9YGl0GnqANNmxV-53" value="- virtual scheduleUpdate(upd:UpdateInfo): void&lt;br style=&quot;border-color: var(--border-color);&quot;&gt;- virtual updateNow(upd:UpdateInfo): void&lt;br&gt;- prepareUpdateBytes(upd:UpdateInfo): void&lt;br&gt;- commitUpdate(): void&lt;br style=&quot;border-color: var(--border-color); padding: 0px; margin: 0px;&quot;&gt;- updateBytes(upd:UpdateInfo): void" style="text;strokeColor=none;fillColor=none;align=left;verticalAlign=top;spacingLeft=4;spacingRight=4;overflow=hidden;rotatable=0;points=[[0,0.5],[1,0.5]];portConstraint=eastwest;whiteSpace=wrap;html=1;" vertex="1" parent="GAv3YF9YGl0GnqANNmxV-50">
          <mxGeometry y="78" width="266.25" height="82" as="geometry" />
        </mxCell>
        <mxCell id="GAv3YF9YGl0GnqANNmxV-55" style="edgeStyle=orthogonalEdgeStyle;rounded=0;orthogonalLoop=1;jettySize=auto;html=1;endArrow=block;endFill=0;startSize=10;endSize=10;entryX=0.501;entryY=0.999;entryDx=0;entryDy=0;entryPerimeter=0;exitX=0.5;exitY=0;exitDx=0;exitDy=0;" edge="1" parent="1" source="GAv3YF9YGl0GnqANNmxV-56" target="GAv3YF9YGl0GnqANNmxV-48">
          <mxGeometry relative="1" as="geometry">
            <Array as="points">
              <mxPoint x="-387" y="890" />
              <mxPoint x="-531" y="890" />
            </Array>
            <mxPoint x="-560.7142857142853" y="1080" as="targetPoint" />
          </mxGeometry>
        </mxCell>
        <mxCell id="GAv3YF9YGl0GnqANNmxV-56" value="EEPROMReaderWriterAVR" style="swimlane;fontStyle=1;align=center;verticalAlign=top;childLayout=stackLayout;horizontal=1;startSize=26;horizontalStack=0;resizeParent=1;resizeParentMax=0;resizeLast=0;collapsible=1;marginBottom=0;whiteSpace=wrap;html=1;" vertex="1" parent="1">
          <mxGeometry x="-522.5" y="930" width="270" height="160" as="geometry" />
        </mxCell>
        <mxCell id="GAv3YF9YGl0GnqANNmxV-57" value="- updateThreshold: const uint8_t&lt;br&gt;- updateCounter: uint8_t" style="text;strokeColor=none;fillColor=none;align=left;verticalAlign=top;spacingLeft=4;spacingRight=4;overflow=hidden;rotatable=0;points=[[0,0.5],[1,0.5]];portConstraint=eastwest;whiteSpace=wrap;html=1;" vertex="1" parent="GAv3YF9YGl0GnqANNmxV-56">
          <mxGeometry y="26" width="270" height="44" as="geometry" />
        </mxCell>
        <mxCell id="GAv3YF9YGl0GnqANNmxV-58" value="" style="line;strokeWidth=1;fillColor=none;align=left;verticalAlign=middle;spacingTop=-1;spacingLeft=3;spacingRight=3;rotatable=0;labelPosition=right;points=[];portConstraint=eastwest;strokeColor=inherit;" vertex="1" parent="GAv3YF9YGl0GnqANNmxV-56">
          <mxGeometry y="70" width="270" height="8" as="geometry" />
        </mxCell>
        <mxCell id="GAv3YF9YGl0GnqANNmxV-59" value="- virtual scheduleUpdate(upd:UpdateInfo): void&lt;br style=&quot;border-color: var(--border-color);&quot;&gt;- virtual updateNow(upd:UpdateInfo): void&lt;br style=&quot;border-color: var(--border-color); padding: 0px; margin: 0px;&quot;&gt;- updateBytes(upd:UpdateInfo): void" style="text;strokeColor=none;fillColor=none;align=left;verticalAlign=top;spacingLeft=4;spacingRight=4;overflow=hidden;rotatable=0;points=[[0,0.5],[1,0.5]];portConstraint=eastwest;whiteSpace=wrap;html=1;" vertex="1" parent="GAv3YF9YGl0GnqANNmxV-56">
          <mxGeometry y="78" width="270" height="82" as="geometry" />
        </mxCell>
      </root>
    </mxGraphModel>
  </diagram>
</mxfile>
